<?xml version="1.0" standalone="no"?><!DOCTYPE svg PUBLIC "-//W3C//DTD SVG 1.1//EN" "http://www.w3.org/Graphics/SVG/1.1/DTD/svg11.dtd"><svg width="410" height="410" viewBox="0 0 41 41" xmlns="http://www.w3.org/2000/svg" version="1.1"><defs><style type="text/css"><![CDATA[ rect{fill:#00f;}]]></style></defs><title>qr2svg</title><desc>SVG generated from QR - http://www.marcqualie.com/projects/qr2svg</desc><rect x="2" y="2" width="7" height="1"/><rect x="10" y="2" width="5" height="1"/><rect x="17" y="2" width="1" height="1"/><rect x="19" y="2" width="1" height="1"/><rect x="23" y="2" width="1" height="1"/><rect x="26" y="2" width="2" height="1"/><rect x="30" y="2" width="1" height="1"/><rect x="32" y="2" width="7" height="1"/><rect x="2" y="3" width="1" height="1"/><rect x="8" y="3" width="1" height="1"/><rect x="10" y="3" width="1" height="1"/><rect x="15" y="3" width="1" height="1"/><rect x="19" y="3" width="5" height="1"/><rect x="27" y="3" width="4" height="1"/><rect x="32" y="3" width="1" height="1"/><rect x="38" y="3" width="1" height="1"/><rect x="2" y="4" width="1" height="1"/><rect x="4" y="4" width="3" height="1"/><rect x="8" y="4" width="1" height="1"/><rect x="10" y="4" width="2" height="1"/><rect x="14" y="4" width="1" height="1"/><rect x="16" y="4" width="2" height="1"/><rect x="21" y="4" width="1" height="1"/><rect x="25" y="4" width="1" height="1"/><rect x="28" y="4" width="2" height="1"/><rect x="32" y="4" width="1" height="1"/><rect x="34" y="4" width="3" height="1"/><rect x="38" y="4" width="1" height="1"/><rect x="2" y="5" width="1" height="1"/><rect x="4" y="5" width="3" height="1"/><rect x="8" y="5" width="1" height="1"/><rect x="12" y="5" width="4" height="1"/><rect x="17" y="5" width="5" height="1"/><rect x="23" y="5" width="1" height="1"/><rect x="25" y="5" width="1" height="1"/><rect x="27" y="5" width="4" height="1"/><rect x="32" y="5" width="1" height="1"/><rect x="34" y="5" width="3" height="1"/><rect x="38" y="5" width="1" height="1"/><rect x="2" y="6" width="1" height="1"/><rect x="4" y="6" width="3" height="1"/><rect x="8" y="6" width="1" height="1"/><rect x="14" y="6" width="4" height="1"/><rect x="19" y="6" width="2" height="1"/><rect x="22" y="6" width="2" height="1"/><rect x="30" y="6" width="1" height="1"/><rect x="32" y="6" width="1" height="1"/><rect x="34" y="6" width="3" height="1"/><rect x="38" y="6" width="1" height="1"/><rect x="2" y="7" width="1" height="1"/><rect x="8" y="7" width="1" height="1"/><rect x="10" y="7" width="2" height="1"/><rect x="14" y="7" width="2" height="1"/><rect x="17" y="7" width="2" height="1"/><rect x="22" y="7" width="2" height="1"/><rect x="26" y="7" width="5" height="1"/><rect x="32" y="7" width="1" height="1"/><rect x="38" y="7" width="1" height="1"/><rect x="2" y="8" width="7" height="1"/><rect x="10" y="8" width="1" height="1"/><rect x="12" y="8" width="1" height="1"/><rect x="14" y="8" width="1" height="1"/><rect x="16" y="8" width="1" height="1"/><rect x="18" y="8" width="1" height="1"/><rect x="20" y="8" width="1" height="1"/><rect x="22" y="8" width="1" height="1"/><rect x="24" y="8" width="1" height="1"/><rect x="26" y="8" width="1" height="1"/><rect x="28" y="8" width="1" height="1"/><rect x="30" y="8" width="1" height="1"/><rect x="32" y="8" width="7" height="1"/><rect x="10" y="9" width="1" height="1"/><rect x="13" y="9" width="1" height="1"/><rect x="20" y="9" width="4" height="1"/><rect x="25" y="9" width="2" height="1"/><rect x="28" y="9" width="1" height="1"/><rect x="30" y="9" width="1" height="1"/><rect x="1" y="9" width="0" height="1"/><rect x="4" y="10" width="3" height="1"/><rect x="8" y="10" width="1" height="1"/><rect x="10" y="10" width="2" height="1"/><rect x="14" y="10" width="1" height="1"/><rect x="16" y="10" width="1" height="1"/><rect x="18" y="10" width="1" height="1"/><rect x="20" y="10" width="2" height="1"/><rect x="25" y="10" width="3" height="1"/><rect x="31" y="10" width="3" height="1"/><rect x="36" y="10" width="3" height="1"/><rect x="2" y="11" width="1" height="1"/><rect x="6" y="11" width="1" height="1"/><rect x="11" y="11" width="7" height="1"/><rect x="20" y="11" width="2" height="1"/><rect x="23" y="11" width="1" height="1"/><rect x="30" y="11" width="2" height="1"/><rect x="35" y="11" width="1" height="1"/><rect x="1" y="11" width="0" height="1"/><rect x="3" y="12" width="1" height="1"/><rect x="6" y="12" width="4" height="1"/><rect x="15" y="12" width="2" height="1"/><rect x="18" y="12" width="1" height="1"/><rect x="22" y="12" width="3" height="1"/><rect x="26" y="12" width="4" height="1"/><rect x="32" y="12" width="1" height="1"/><rect x="34" y="12" width="1" height="1"/><rect x="36" y="12" width="3" height="1"/><rect x="5" y="13" width="1" height="1"/><rect x="7" y="13" width="1" height="1"/><rect x="9" y="13" width="5" height="1"/><rect x="18" y="13" width="4" height="1"/><rect x="23" y="13" width="1" height="1"/><rect x="25" y="13" width="1" height="1"/><rect x="28" y="13" width="1" height="1"/><rect x="30" y="13" width="1" height="1"/><rect x="32" y="13" width="1" height="1"/><rect x="35" y="13" width="1" height="1"/><rect x="1" y="13" width="0" height="1"/><rect x="4" y="14" width="1" height="1"/><rect x="6" y="14" width="6" height="1"/><rect x="19" y="14" width="3" height="1"/><rect x="23" y="14" width="2" height="1"/><rect x="27" y="14" width="3" height="1"/><rect x="32" y="14" width="1" height="1"/><rect x="34" y="14" width="4" height="1"/><rect x="2" y="15" width="1" height="1"/><rect x="7" y="15" width="1" height="1"/><rect x="9" y="15" width="1" height="1"/><rect x="12" y="15" width="1" height="1"/><rect x="14" y="15" width="1" height="1"/><rect x="16" y="15" width="1" height="1"/><rect x="18" y="15" width="1" height="1"/><rect x="20" y="15" width="2" height="1"/><rect x="23" y="15" width="1" height="1"/><rect x="25" y="15" width="4" height="1"/><rect x="30" y="15" width="2" height="1"/><rect x="35" y="15" width="2" height="1"/><rect x="1" y="15" width="0" height="1"/><rect x="5" y="16" width="1" height="1"/><rect x="8" y="16" width="1" height="1"/><rect x="13" y="16" width="1" height="1"/><rect x="15" y="16" width="1" height="1"/><rect x="17" y="16" width="2" height="1"/><rect x="20" y="16" width="1" height="1"/><rect x="24" y="16" width="1" height="1"/><rect x="28" y="16" width="2" height="1"/><rect x="32" y="16" width="2" height="1"/><rect x="35" y="16" width="1" height="1"/><rect x="37" y="16" width="2" height="1"/><rect x="4" y="17" width="4" height="1"/><rect x="12" y="17" width="1" height="1"/><rect x="14" y="17" width="1" height="1"/><rect x="19" y="17" width="3" height="1"/><rect x="25" y="17" width="2" height="1"/><rect x="31" y="17" width="1" height="1"/><rect x="33" y="17" width="2" height="1"/><rect x="1" y="17" width="0" height="1"/><rect x="4" y="18" width="2" height="1"/><rect x="8" y="18" width="2" height="1"/><rect x="11" y="18" width="5" height="1"/><rect x="17" y="18" width="1" height="1"/><rect x="20" y="18" width="1" height="1"/><rect x="22" y="18" width="2" height="1"/><rect x="26" y="18" width="4" height="1"/><rect x="31" y="18" width="2" height="1"/><rect x="34" y="18" width="1" height="1"/><rect x="36" y="18" width="2" height="1"/><rect x="2" y="19" width="2" height="1"/><rect x="5" y="19" width="1" height="1"/><rect x="12" y="19" width="1" height="1"/><rect x="16" y="19" width="1" height="1"/><rect x="18" y="19" width="2" height="1"/><rect x="26" y="19" width="2" height="1"/><rect x="30" y="19" width="2" height="1"/><rect x="33" y="19" width="1" height="1"/><rect x="36" y="19" width="1" height="1"/><rect x="1" y="19" width="0" height="1"/><rect x="7" y="20" width="4" height="1"/><rect x="13" y="20" width="5" height="1"/><rect x="23" y="20" width="1" height="1"/><rect x="26" y="20" width="2" height="1"/><rect x="29" y="20" width="3" height="1"/><rect x="34" y="20" width="1" height="1"/><rect x="37" y="20" width="2" height="1"/><rect x="3" y="21" width="1" height="1"/><rect x="5" y="21" width="1" height="1"/><rect x="9" y="21" width="1" height="1"/><rect x="11" y="21" width="1" height="1"/><rect x="15" y="21" width="1" height="1"/><rect x="22" y="21" width="1" height="1"/><rect x="26" y="21" width="1" height="1"/><rect x="29" y="21" width="3" height="1"/><rect x="1" y="21" width="0" height="1"/><rect x="3" y="22" width="1" height="1"/><rect x="7" y="22" width="5" height="1"/><rect x="13" y="22" width="1" height="1"/><rect x="15" y="22" width="3" height="1"/><rect x="20" y="22" width="1" height="1"/><rect x="26" y="22" width="4" height="1"/><rect x="31" y="22" width="6" height="1"/><rect x="1" y="22" width="0" height="1"/><rect x="2" y="23" width="3" height="1"/><rect x="6" y="23" width="2" height="1"/><rect x="13" y="23" width="1" height="1"/><rect x="15" y="23" width="2" height="1"/><rect x="18" y="23" width="2" height="1"/><rect x="21" y="23" width="2" height="1"/><rect x="24" y="23" width="2" height="1"/><rect x="27" y="23" width="1" height="1"/><rect x="31" y="23" width="1" height="1"/><rect x="33" y="23" width="1" height="1"/><rect x="35" y="23" width="1" height="1"/><rect x="37" y="23" width="1" height="1"/><rect x="7" y="24" width="4" height="1"/><rect x="12" y="24" width="1" height="1"/><rect x="14" y="24" width="2" height="1"/><rect x="17" y="24" width="1" height="1"/><rect x="20" y="24" width="2" height="1"/><rect x="23" y="24" width="2" height="1"/><rect x="26" y="24" width="5" height="1"/><rect x="32" y="24" width="1" height="1"/><rect x="36" y="24" width="3" height="1"/><rect x="3" y="25" width="3" height="1"/><rect x="9" y="25" width="4" height="1"/><rect x="16" y="25" width="1" height="1"/><rect x="22" y="25" width="1" height="1"/><rect x="25" y="25" width="2" height="1"/><rect x="28" y="25" width="1" height="1"/><rect x="30" y="25" width="1" height="1"/><rect x="33" y="25" width="1" height="1"/><rect x="38" y="25" width="1" height="1"/><rect x="3" y="26" width="4" height="1"/><rect x="8" y="26" width="1" height="1"/><rect x="10" y="26" width="2" height="1"/><rect x="14" y="26" width="1" height="1"/><rect x="17" y="26" width="2" height="1"/><rect x="20" y="26" width="1" height="1"/><rect x="24" y="26" width="2" height="1"/><rect x="30" y="26" width="9" height="1"/><rect x="2" y="27" width="1" height="1"/><rect x="6" y="27" width="2" height="1"/><rect x="9" y="27" width="1" height="1"/><rect x="13" y="27" width="1" height="1"/><rect x="24" y="27" width="1" height="1"/><rect x="26" y="27" width="1" height="1"/><rect x="30" y="27" width="2" height="1"/><rect x="33" y="27" width="1" height="1"/><rect x="36" y="27" width="1" height="1"/><rect x="1" y="27" width="0" height="1"/><rect x="2" y="28" width="1" height="1"/><rect x="4" y="28" width="1" height="1"/><rect x="6" y="28" width="1" height="1"/><rect x="8" y="28" width="4" height="1"/><rect x="14" y="28" width="7" height="1"/><rect x="22" y="28" width="1" height="1"/><rect x="27" y="28" width="4" height="1"/><rect x="33" y="28" width="1" height="1"/><rect x="36" y="28" width="1" height="1"/><rect x="38" y="28" width="1" height="1"/><rect x="2" y="29" width="1" height="1"/><rect x="5" y="29" width="3" height="1"/><rect x="9" y="29" width="1" height="1"/><rect x="13" y="29" width="1" height="1"/><rect x="15" y="29" width="1" height="1"/><rect x="17" y="29" width="1" height="1"/><rect x="21" y="29" width="2" height="1"/><rect x="24" y="29" width="1" height="1"/><rect x="26" y="29" width="1" height="1"/><rect x="28" y="29" width="1" height="1"/><rect x="37" y="29" width="2" height="1"/><rect x="2" y="30" width="1" height="1"/><rect x="4" y="30" width="1" height="1"/><rect x="8" y="30" width="4" height="1"/><rect x="13" y="30" width="1" height="1"/><rect x="16" y="30" width="6" height="1"/><rect x="23" y="30" width="1" height="1"/><rect x="27" y="30" width="8" height="1"/><rect x="36" y="30" width="3" height="1"/><rect x="10" y="31" width="1" height="1"/><rect x="13" y="31" width="3" height="1"/><rect x="21" y="31" width="5" height="1"/><rect x="27" y="31" width="2" height="1"/><rect x="30" y="31" width="1" height="1"/><rect x="34" y="31" width="1" height="1"/><rect x="1" y="31" width="0" height="1"/><rect x="2" y="32" width="7" height="1"/><rect x="11" y="32" width="2" height="1"/><rect x="14" y="32" width="3" height="1"/><rect x="18" y="32" width="2" height="1"/><rect x="24" y="32" width="1" height="1"/><rect x="30" y="32" width="1" height="1"/><rect x="32" y="32" width="1" height="1"/><rect x="34" y="32" width="2" height="1"/><rect x="38" y="32" width="1" height="1"/><rect x="2" y="33" width="1" height="1"/><rect x="8" y="33" width="1" height="1"/><rect x="11" y="33" width="3" height="1"/><rect x="15" y="33" width="3" height="1"/><rect x="19" y="33" width="1" height="1"/><rect x="23" y="33" width="1" height="1"/><rect x="25" y="33" width="2" height="1"/><rect x="28" y="33" width="1" height="1"/><rect x="30" y="33" width="1" height="1"/><rect x="34" y="33" width="1" height="1"/><rect x="37" y="33" width="1" height="1"/><rect x="2" y="34" width="1" height="1"/><rect x="4" y="34" width="3" height="1"/><rect x="8" y="34" width="1" height="1"/><rect x="10" y="34" width="1" height="1"/><rect x="14" y="34" width="1" height="1"/><rect x="16" y="34" width="1" height="1"/><rect x="18" y="34" width="1" height="1"/><rect x="24" y="34" width="1" height="1"/><rect x="26" y="34" width="9" height="1"/><rect x="36" y="34" width="3" height="1"/><rect x="2" y="35" width="1" height="1"/><rect x="4" y="35" width="3" height="1"/><rect x="8" y="35" width="1" height="1"/><rect x="10" y="35" width="2" height="1"/><rect x="14" y="35" width="1" height="1"/><rect x="17" y="35" width="1" height="1"/><rect x="20" y="35" width="2" height="1"/><rect x="29" y="35" width="1" height="1"/><rect x="32" y="35" width="1" height="1"/><rect x="34" y="35" width="2" height="1"/><rect x="1" y="35" width="0" height="1"/><rect x="2" y="36" width="1" height="1"/><rect x="4" y="36" width="3" height="1"/><rect x="8" y="36" width="1" height="1"/><rect x="10" y="36" width="2" height="1"/><rect x="13" y="36" width="1" height="1"/><rect x="16" y="36" width="1" height="1"/><rect x="18" y="36" width="1" height="1"/><rect x="20" y="36" width="3" height="1"/><rect x="25" y="36" width="2" height="1"/><rect x="28" y="36" width="2" height="1"/><rect x="33" y="36" width="1" height="1"/><rect x="38" y="36" width="1" height="1"/><rect x="2" y="37" width="1" height="1"/><rect x="8" y="37" width="1" height="1"/><rect x="14" y="37" width="2" height="1"/><rect x="17" y="37" width="1" height="1"/><rect x="19" y="37" width="2" height="1"/><rect x="22" y="37" width="1" height="1"/><rect x="24" y="37" width="2" height="1"/><rect x="28" y="37" width="1" height="1"/><rect x="30" y="37" width="1" height="1"/><rect x="32" y="37" width="3" height="1"/><rect x="38" y="37" width="1" height="1"/><rect x="2" y="38" width="7" height="1"/><rect x="12" y="38" width="2" height="1"/><rect x="15" y="38" width="1" height="1"/><rect x="17" y="38" width="1" height="1"/><rect x="22" y="38" width="1" height="1"/><rect x="25" y="38" width="4" height="1"/><rect x="31" y="38" width="4" height="1"/><rect x="36" y="38" width="3" height="1"/></svg>